<?xml version="1.0" encoding="UTF-8" standalone="no"?>
<svg
   width="24"
   height="24"
   viewBox="0 0 24 24"
   version="1.1"
   id="svg1"
   xml:space="preserve"
   xmlns="http://www.w3.org/2000/svg"
   xmlns:svg="http://www.w3.org/2000/svg"><defs
     id="defs1" /><path
     id="path1-6-5"
     d="M 9.890625,2.3046875 A 0.998,0.998 0 0 0 8.8945312,2.796875 L 7.7890625,4.7070312 H 5.5898438 a 1,1 0 0 0 -1,1 V 7.90625 L 2.6816406,9.0097656 A 1.001,1.001 0 0 0 2.3164062,10.376953 l 1.1035157,1.908203 -1.1035157,1.910156 a 1.003,1.003 0 0 0 -0.1015624,0.757813 0.992,0.992 0 0 0 0.4667968,0.605469 l 1.9082032,1.105468 v 2.199219 a 1,1 0 0 0 1,1 h 2.1992187 l 1.1054687,1.908203 a 1.002,1.002 0 0 0 1.3652348,0.367188 l 1.908203,-1.103516 1.910156,1.103516 a 1.002,1.002 0 0 0 1.367187,-0.365234 l 1.101563,-1.908204 h 2.199219 a 1,1 0 0 0 1,-1 v -2.199218 l 1.910156,-1.105469 a 0.999,0.999 0 0 0 0.365234,-1.365235 l -1.103515,-1.910156 1.105469,-1.908203 A 1,1 0 0 0 21.65625,9.0097656 L 19.748047,7.90625 V 5.7070312 a 1,1 0 0 0 -1,-1 H 16.548828 L 15.445312,2.7988281 A 1.004,1.004 0 0 0 14.837891,2.3320312 0.994,0.994 0 0 0 14.080078,2.4316406 L 12.167969,3.5351562 10.259766,2.4316406 A 0.998,0.998 0 0 0 9.890625,2.3046875 Z M 9.3378906,9.1503906 c 0.7519884,0 1.3271664,0.2749884 1.7265624,0.8222656 0.399397,0.5472778 0.599609,1.3644868 0.599609,2.4531248 1e-6,0.727731 -0.09756,1.3428 -0.291015,1.845703 -0.190338,0.499946 -0.471269,0.880299 -0.845703,1.140625 -0.371314,0.257369 -0.8265925,0.386719 -1.3632815,0.386719 -0.3494719,0 -0.6644868,-0.06805 -0.9453125,-0.201172 C 7.9410446,15.464535 7.7130125,15.277733 7.5351562,15.035156 7.3573,14.789621 7.246023,14.503142 7.1992188,14.177734 L 8.5,14.048828 c 0.046804,0.233702 0.129476,0.411915 0.2480469,0.533203 0.1216911,0.11833 0.2878206,0.177735 0.5,0.177735 0.6490193,0 0.9945921,-0.605475 1.0351561,-1.81836 -0.296427,0.357949 -0.7140968,0.535156 -1.2539061,0.535156 -0.3744342,0 -0.7121714,-0.09002 -1.0117188,-0.273437 C 7.7180308,13.019713 7.4849016,12.765809 7.3164062,12.443359 7.1479109,12.12091 7.0625,11.756844 7.0625,11.351562 7.0625,10.934448 7.156533,10.55984 7.34375,10.228516 7.5309671,9.8942327 7.7954405,9.6317397 8.1386719,9.4394531 8.4819032,9.2471665 8.882329,9.1503906 9.3378906,9.1503906 Z m -0.00391,1.0390624 c -0.2808257,0 -0.5072859,0.09962 -0.6757813,0.300781 -0.1653751,0.201162 -0.2480469,0.488588 -0.2480469,0.861328 0,0.78098 0.309132,1.171875 0.9238282,1.171876 0.2683445,0 0.4850155,-0.08718 0.6503906,-0.261719 0.1684948,-0.177496 0.2519528,-0.44289 0.2519528,-0.794922 0,-0.275118 -0.03997,-0.508885 -0.121094,-0.701172 -0.078,-0.192287 -0.1869218,-0.335023 -0.3242144,-0.429687 -0.1341722,-0.09762 -0.2854155,-0.146485 -0.4570312,-0.146485 z m 4.9374994,0.01758 h 1.207032 v 1.699219 h 1.792968 v 1.144531 H 15.478516 V 14.75 H 14.271484 V 13.050781 H 12.478516 V 11.90625 h 1.792968 z"
     style="fill:#ff0000" /></svg>
